<?xml version="1.0" encoding="utf-8"?>
<svg xmlns="http://www.w3.org/2000/svg" version="1.1" viewBox="0 0 1400 550">
	<title>The titlepage for the Standard Ebooks edition of The Hanging Stranger, by Philip K. Dick</title>
	<g aria-label="LA MORTODANCO">
		<path d="M247.68,52.81l0.00,61.75l26.57,0.00l0.00,15.44l-44.16,0.00l0.00-77.19l17.59,0.00z"/>
		<path d="M328.57,52.81l31.16,77.19l-18.90,0.00l-5.71-15.44l-29.38,0.00l-5.71,15.44l-18.90,0.00l31.16-77.19l16.28,0.00z  M329.13,99.12l-8.61-22.46l-0.19,0.00l-8.61,22.46l17.40,0.00z"/>
		<path d="M462.08,130.00l-3.65-45.75l-0.47,0.00l-15.81,45.29l-10.48,0.00l-15.81-45.29l-0.47,0.00l-3.65,45.75l-17.59,0.00l6.92-77.19l18.71,0.00l17.12,44.54l17.12-44.54l18.71,0.00l6.92,77.19l-17.59,0.00z"/>
		<path d="M488.32,91.36c0.00-22.55,17.68-39.95,38.92-39.95c21.43,0.00,38.83,17.40,38.83,39.95s-16.65,40.05-38.83,40.05c-22.83,0.00-38.92-17.50-38.92-40.05z  M507.31,91.36c0.00,11.51,5.52,23.02,19.93,23.02c14.04,0.00,19.84-11.51,19.84-23.02s-6.18-23.02-19.84-23.02c-13.57,0.00-19.93,11.51-19.93,23.02z"/>
		<path d="M578.84,52.81l27.60,0.00c14.32,0.00,25.17,7.77,25.17,22.92c0.00,11.60-6.36,19.37-15.81,22.36l26.57,31.91l-22.36,0.00l-23.58-30.50l0.00,30.50l-17.59,0.00l0.00-77.19z  M596.43,87.05l2.06,0.00c6.64,0.00,14.60-0.47,14.60-10.11s-7.95-10.11-14.60-10.11l-2.06,0.00l0.00,20.21z"/>
		<path d="M642.22,68.25l0.00-15.44l54.27,0.00l0.00,15.44l-18.34,0.00l0.00,61.75l-17.59,0.00l0.00-61.75l-18.34,0.00z"/>
		<path d="M701.40,91.36c0.00-22.55,17.68-39.95,38.92-39.95c21.43,0.00,38.83,17.40,38.83,39.95s-16.65,40.05-38.83,40.05c-22.83,0.00-38.92-17.50-38.92-40.05z  M720.39,91.36c0.00,11.51,5.52,23.02,19.93,23.02c14.04,0.00,19.84-11.51,19.84-23.02s-6.18-23.02-19.84-23.02c-13.57,0.00-19.93,11.51-19.93,23.02z"/>
		<path d="M791.92,52.81l22.36,0.00c21.15,0.00,38.92,16.09,38.92,38.55c0.00,22.55-17.68,38.64-38.92,38.64l-22.36,0.00l0.00-77.19z  M809.51,114.28l2.71,0.00c13.01,0.00,21.89-9.92,21.99-22.83c0.00-12.91-8.89-22.92-21.99-22.92l-2.71,0.00l0.00,45.75z"/>
		<path d="M905.18,52.81l31.16,77.19l-18.90,0.00l-5.71-15.44l-29.38,0.00l-5.71,15.44l-18.90,0.00l31.16-77.19l16.28,0.00z  M905.74,99.12l-8.61-22.46l-0.19,0.00l-8.61,22.46l17.40,0.00z"/>
		<path d="M961.92,82.09l0.00,47.91l-17.59,0.00l0.00-77.19l17.59,0.00l30.69,47.91l0.19,0.00l0.00-47.91l17.59,0.00l0.00,77.19l-17.59,0.00l-30.69-47.91l-0.19,0.00z"/>
		<path d="M1064.70,114.09c8.98,0.00,15.16-4.77,15.16-4.77l7.49,14.97s-8.61,7.11-25.36,7.11c-21.80,0.00-41.82-17.78-41.82-39.86c0.00-22.18,19.93-40.14,41.82-40.14c16.75,0.00,25.36,7.11,25.36,7.11l-7.49,14.97s-6.18-4.77-15.16-4.77c-17.68,0.00-25.45,12.35-25.45,22.64c0.00,10.39,7.77,22.74,25.45,22.74z"/>
		<path d="M1095.61,91.36c0.00-22.55,17.68-39.95,38.92-39.95c21.43,0.00,38.83,17.40,38.83,39.95s-16.65,40.05-38.83,40.05c-22.83,0.00-38.92-17.50-38.92-40.05z  M1114.61,91.36c0.00,11.51,5.52,23.02,19.93,23.02c14.04,0.00,19.84-11.51,19.84-23.02s-6.18-23.02-19.84-23.02c-13.57,0.00-19.93,11.51-19.93,23.02z"/>
	</g>
	<g aria-label="an English-Esperanto Reader">
		<path d="M461.04,225.15c0.00-2.38,1.06-4.80,2.38-6.93c1.53-2.42,3.49-4.46,5.74-5.53c1.15-0.55,2.00-0.77,3.10-0.77c1.32,0.00,2.21,0.47,3.61,0.47c0.85,0.00,1.36-2.08,2.21-2.08c0.26,0.00,0.47,0.17,0.47,0.64c0.00,0.68-0.55,1.70-0.85,2.93c-0.38,1.57-0.64,3.53-0.98,5.44c-0.34,1.87-0.77,3.83-0.77,5.44c0.00,1.11,0.64,2.51,1.45,2.51c1.40,0.00,2.30-2.76,3.10-2.76c0.34,0.00,0.38,0.30,0.38,0.47c0.00,0.43-0.21,1.06-0.77,1.83c-1.06,1.53-2.98,3.49-4.12,3.49c-2.72,0.00-2.34-4.76-2.64-4.76c-0.21,0.00-3.74,5.10-7.78,5.10s-4.55-2.72-4.55-5.48z  M464.02,224.90c0.00,2.13,1.53,3.40,3.32,3.40c3.06,0.00,5.06-3.06,5.44-3.83c1.02-2.04,2.17-9.86,2.17-9.99c0.00-1.19-1.91-1.49-2.81-1.49c-1.74,0.00-4.00,1.28-5.27,3.44c-1.23,2.04-2.25,3.95-2.64,6.16c-0.13,0.77-0.21,1.53-0.21,2.30z"/>
		<path d="M482.30,216.35c0.00-1.66,2.55-4.85,4.17-4.85c2.47,0.00,1.57,4.46,1.96,4.46c0.26,0.00,0.55-0.94,2.13-2.13c1.15-0.89,3.40-2.42,5.19-2.42c2.98,0.00,3.57,2.64,3.57,5.31c0.00,2.98-0.72,7.48-0.72,8.93c0.00,1.19,0.34,1.53,0.81,1.53c0.72,0.00,1.70-0.94,1.70-0.94c0.51-0.64,0.68-1.15,1.32-1.15c0.30,0.00,0.38,0.26,0.38,0.51c0.00,1.66-3.74,4.63-5.61,4.63c-0.85,0.00-1.57-1.19-1.57-2.68c0.00-3.23,0.89-8.93,0.89-10.50c0.00-0.68-0.21-3.49-2.98-3.49c-0.98,0.00-1.79,0.47-2.76,1.87c-1.83,2.59-1.32,2.21-2.34,7.69c-1.06,5.74-0.77,5.23-0.85,5.82c-0.13,0.94-0.47,1.11-1.57,1.11c-1.15,0.00-1.49-0.09-1.49-1.32c0.00-1.79,1.87-8.37,1.87-11.65c0.00-1.49-0.55-2.34-0.98-2.34c-1.32,0.00-1.79,2.38-2.72,2.38c-0.30,0.00-0.38-0.34-0.38-0.81z"/>
		<path d="M513.54,229.40c0.00-0.21,0.26-0.55,0.94-0.60c2.13-0.13,2.25-1.74,2.93-5.74c0.21-1.45,0.55-3.36,0.85-5.65l1.53-12.88c0.04-0.38,0.04-0.68,0.04-0.89c0.00-3.44-3.23-1.83-3.23-3.10c0.00-0.43,0.21-0.64,0.98-0.64c1.23,0.00,4.34,0.09,10.75,0.09c1.70,0.00,8.54-0.17,9.82-0.17c0.30,0.00,0.77,0.09,0.77,0.81c0.00,0.55-0.17,1.28-0.17,2.25c0.00,0.68,0.13,1.40,0.13,2.30c0.00,0.51-0.21,1.19-0.55,1.19c-1.15,0.00-0.09-1.66-1.45-3.23c-0.21-0.26-1.57-1.32-4.46-1.36c-3.40-0.04-4.12-0.13-6.55-0.13c-2.64,0.00-2.59,0.34-3.02,2.89c-0.17,1.19-1.06,8.08-1.06,8.63s0.13,0.60,1.83,0.60c7.69,0.00,7.99-0.17,8.67-1.02c1.02-1.28,0.89-2.21,1.45-2.21c0.38,0.00,0.51,0.13,0.51,0.47c0.00,0.77-0.64,2.72-0.85,4.42c-0.21,1.49,0.13,4.21-0.77,4.21c-0.38,0.00-0.47-0.30-0.47-0.68c0.00-0.81,0.00-2.04-0.72-2.55c-0.81-0.60-2.34-0.89-4.55-0.89c-3.70,0.00-3.15-0.04-3.61-0.04c-0.89,0.00-1.62,0.04-1.66,0.72c-0.34,3.02-1.53,9.82-1.53,10.54c0.00,1.40,1.11,1.57,5.36,1.57c10.58,0.00,10.88-4.21,11.99-4.21c0.21,0.00,0.43,0.17,0.43,0.60c0.00,1.36-2.98,5.65-4.93,5.65c-5.44,0.00-10.54-0.47-13.13-0.47c-2.34,0.00-2.68,0.13-4.76,0.13c-1.49,0.00-1.49-0.38-1.49-0.60z"/>
		<path d="M540.32,216.35c0.00-1.66,2.55-4.85,4.17-4.85c2.47,0.00,1.57,4.46,1.96,4.46c0.26,0.00,0.55-0.94,2.13-2.13c1.15-0.89,3.40-2.42,5.19-2.42c2.98,0.00,3.57,2.64,3.57,5.31c0.00,2.98-0.72,7.48-0.72,8.93c0.00,1.19,0.34,1.53,0.81,1.53c0.72,0.00,1.70-0.94,1.70-0.94c0.51-0.64,0.68-1.15,1.32-1.15c0.30,0.00,0.38,0.26,0.38,0.51c0.00,1.66-3.74,4.63-5.61,4.63c-0.85,0.00-1.57-1.19-1.57-2.68c0.00-3.23,0.89-8.93,0.89-10.50c0.00-0.68-0.21-3.49-2.98-3.49c-0.98,0.00-1.79,0.47-2.76,1.87c-1.83,2.59-1.32,2.21-2.34,7.69c-1.06,5.74-0.77,5.23-0.85,5.82c-0.13,0.94-0.47,1.11-1.57,1.11c-1.15,0.00-1.49-0.09-1.49-1.32c0.00-1.79,1.87-8.37,1.87-11.65c0.00-1.49-0.55-2.34-0.98-2.34c-1.32,0.00-1.79,2.38-2.72,2.38c-0.30,0.00-0.38-0.34-0.38-0.81z"/>
		<path d="M560.64,233.10c0.00-3.83,4.08-4.04,4.08-4.29s-0.51-0.51-0.51-1.87c0.00-2.04,1.66-2.55,1.66-2.93c0.00-0.34-1.83-0.72-1.83-5.36c0.00-2.55,2.25-6.80,6.33-6.80c1.79,0.00,3.44,1.11,4.68,1.11c1.15,0.00,2.34-0.94,3.06-0.94c0.38,0.00,1.23,0.21,1.23,1.11c0.00,0.47-0.51,1.32-1.57,1.32c-1.11,0.00-1.91-0.34-2.25-0.34c-0.26,0.00-0.51,0.21-0.51,0.38c0.00,0.30,0.77,1.45,0.77,3.32c0.00,2.68-2.21,7.31-6.08,7.31c-1.96,0.00-2.59-0.55-3.27-0.55c-0.04,0.00-0.51,0.34-0.51,1.45c0.00,3.57,10.84,2.55,10.84,7.69c0.00,3.61-3.15,4.59-7.40,4.59c-4.38,0.00-8.71-1.49-8.71-5.19z  M562.98,232.59c0.00,3.23,3.49,4.63,6.29,4.63c1.79,0.00,4.76-0.38,4.76-2.76c0.00-0.89-1.28-1.79-7.48-4.29c-1.06-0.43-1.40-0.77-1.40-0.77c-0.64,0.00-2.17,1.49-2.17,3.19z  M566.59,219.37c0.00,3.32,1.36,4.76,2.89,4.76c1.83,0.00,3.83-2.21,3.83-6.12c0.00-3.40-1.45-5.06-3.02-5.06c-1.79,0.00-3.70,2.21-3.70,6.42z"/>
		<path d="M581.68,226.34c0.00-2.42,1.11-7.44,1.19-8.12c0.38-2.68,0.60-5.70,1.02-8.42c0.72-4.59,1.36-8.42,1.36-8.93s-0.43-0.85-1.06-0.85s-0.72,0.04-1.23,0.04c-0.85,0.00-1.23-0.13-1.23-0.60c0.00-0.21,0.09-0.55,0.64-0.60c3.10-0.21,4.04-0.64,5.14-0.64c0.68,0.00,0.89,0.26,0.89,0.68c0.00,0.60-0.30,1.15-0.43,1.96c-1.57,8.25-0.85,6.67-2.21,15.81c-0.72,5.02-1.23,7.69-1.23,9.14s0.13,1.66,0.68,1.66c2.34,0.00,2.76-3.02,3.87-3.02c0.30,0.00,0.51,0.26,0.51,0.68s-1.11,1.87-2.13,3.06c-1.11,1.28-2.89,2.13-3.70,2.13c-0.85,0.00-2.08,0.00-2.08-4.00z"/>
		<path d="M591.67,213.17c0.00-0.55,0.51-0.60,0.98-0.60l0.43,0.00c1.70,0.00,2.42-0.38,4.85-0.38c0.30,0.00,0.60,0.17,0.60,0.47c0.00,1.11-0.81,2.76-1.15,4.93c-1.28,8.03-1.28,7.95-1.28,8.46c0.00,0.60,0.43,1.15,0.85,1.15c1.45,0.00,2.04-2.21,2.64-2.21c0.26,0.00,0.43,0.17,0.43,0.47c0.00,0.51-0.77,1.96-1.23,2.47c0.00,0.00-2.34,2.51-3.91,2.51c-1.28,0.00-1.57-1.70-1.57-3.53c0.00-3.23,1.91-9.86,1.91-12.28c0.00-0.72-0.26-0.89-1.02-0.89c-0.89,0.00-1.57-0.04-1.91-0.04c-0.26,0.00-0.60-0.09-0.60-0.51z  M596.17,204.79c0.00-0.38,1.36-2.25,2.13-2.25c0.85,0.00,1.66,1.49,1.66,2.25c0.00,0.85-1.49,2.25-1.87,2.25c-0.77,0.00-1.91-1.83-1.91-2.25z"/>
		<path d="M602.08,227.70c0.00-1.32,0.85-1.53,1.36-1.53c2.17,0.00,1.45,2.93,4.04,2.93c3.10,0.00,3.40-2.21,3.40-2.72c0.00-2.00-1.40-3.23-2.93-4.76c-1.70-1.74-3.32-2.85-3.32-5.40c0.00-2.85,2.47-4.80,5.78-4.80c2.30,0.00,3.95,0.55,3.95,2.21c0.00,1.32-1.40,1.45-1.62,1.45c-1.53,0.00-1.70-2.38-3.36-2.38c-1.62,0.00-2.25,0.98-2.25,2.25c0.00,1.62,2.34,3.36,3.36,4.46c1.32,1.49,2.93,2.68,2.93,5.53c0.00,1.53-1.19,5.57-6.63,5.57c-1.66,0.00-4.72-0.55-4.72-2.81z"/>
		<path d="M616.41,229.02c0.00-1.15,0.89-5.44,1.23-7.78c0.47-3.15,3.02-19.94,3.02-20.23c0.00-0.72-0.43-0.98-1.19-0.98c-0.89,0.00-1.40,0.04-1.74,0.04c-0.26,0.00-0.55-0.09-0.55-0.51c0.00-0.21,0.17-0.47,1.62-0.60c3.49-0.30,3.66-0.72,4.59-0.72c0.30,0.00,0.51,0.26,0.51,0.55c0.00,0.94-2.55,12.41-2.55,16.28c0.00,0.26,0.04,0.47,0.17,0.47c0.43,0.00,2.72-3.61,6.16-3.61c2.93,0.00,3.78,2.17,3.78,4.80c0.00,2.42-1.02,6.63-1.02,8.59c0.00,1.15,0.38,1.96,1.02,1.96c0.68,0.00,1.23-0.43,1.79-0.77c0.89-0.55,1.40-1.74,1.74-1.74c0.26,0.00,0.43,0.13,0.43,0.34c0.00,1.96-3.66,5.02-5.53,5.02c-1.74,0.00-2.08-2.13-2.08-3.95c0.00-2.64,0.77-6.12,0.77-8.67c0.00-2.68-1.15-3.32-2.42-3.32c-1.53,0.00-3.91,0.77-5.06,3.70c-0.85,2.13-1.11,6.55-1.70,10.88c-0.17,1.11-0.68,1.28-1.57,1.28c-0.47,0.00-1.40-0.17-1.40-1.02z"/>
		<path d="M637.45,222.14c0.00-0.64,0.17-1.19,1.87-1.70c4.68-1.40,4.89-1.83,5.87-1.83c0.43,0.00,0.94,0.17,0.94,0.94c0.00,1.62-0.34,1.40-3.19,2.38c-3.32,1.15-3.87,1.62-4.76,1.62c-0.55,0.00-0.72-0.51-0.72-1.40z"/>
		<path d="M648.63,229.40c0.00-0.21,0.26-0.55,0.94-0.60c2.13-0.13,2.25-1.74,2.93-5.74c0.21-1.45,0.55-3.36,0.85-5.65l1.53-12.88c0.04-0.38,0.04-0.68,0.04-0.89c0.00-3.44-3.23-1.83-3.23-3.10c0.00-0.43,0.21-0.64,0.98-0.64c1.23,0.00,4.34,0.09,10.75,0.09c1.70,0.00,8.54-0.17,9.82-0.17c0.30,0.00,0.77,0.09,0.77,0.81c0.00,0.55-0.17,1.28-0.17,2.25c0.00,0.68,0.13,1.40,0.13,2.30c0.00,0.51-0.21,1.19-0.55,1.19c-1.15,0.00-0.09-1.66-1.45-3.23c-0.21-0.26-1.57-1.32-4.46-1.36c-3.40-0.04-4.12-0.13-6.55-0.13c-2.64,0.00-2.59,0.34-3.02,2.89c-0.17,1.19-1.06,8.08-1.06,8.63s0.13,0.60,1.83,0.60c7.69,0.00,7.99-0.17,8.67-1.02c1.02-1.28,0.89-2.21,1.45-2.21c0.38,0.00,0.51,0.13,0.51,0.47c0.00,0.77-0.64,2.72-0.85,4.42c-0.21,1.49,0.13,4.21-0.77,4.21c-0.38,0.00-0.47-0.30-0.47-0.68c0.00-0.81,0.00-2.04-0.72-2.55c-0.81-0.60-2.34-0.89-4.55-0.89c-3.70,0.00-3.15-0.04-3.61-0.04c-0.89,0.00-1.62,0.04-1.66,0.72c-0.34,3.02-1.53,9.82-1.53,10.54c0.00,1.40,1.11,1.57,5.36,1.57c10.58,0.00,10.88-4.21,11.99-4.21c0.21,0.00,0.43,0.17,0.43,0.60c0.00,1.36-2.98,5.65-4.93,5.65c-5.44,0.00-10.54-0.47-13.13-0.47c-2.34,0.00-2.68,0.13-4.76,0.13c-1.49,0.00-1.49-0.38-1.49-0.60z"/>
		<path d="M674.22,227.70c0.00-1.32,0.85-1.53,1.36-1.53c2.17,0.00,1.45,2.93,4.04,2.93c3.10,0.00,3.40-2.21,3.40-2.72c0.00-2.00-1.40-3.23-2.93-4.76c-1.70-1.74-3.32-2.85-3.32-5.40c0.00-2.85,2.47-4.80,5.78-4.80c2.30,0.00,3.95,0.55,3.95,2.21c0.00,1.32-1.40,1.45-1.62,1.45c-1.53,0.00-1.70-2.38-3.36-2.38c-1.62,0.00-2.25,0.98-2.25,2.25c0.00,1.62,2.34,3.36,3.36,4.46c1.32,1.49,2.93,2.68,2.93,5.53c0.00,1.53-1.19,5.57-6.63,5.57c-1.66,0.00-4.72-0.55-4.72-2.81z"/>
		<path d="M687.44,237.78c0.00-1.11,1.57-0.85,1.87-1.74c0.09-0.26,0.13-0.64,0.26-1.66c2.59-20.19,2.76-20.06,2.76-20.19s-0.04-0.21-0.21-0.21c-0.47,0.00-1.66,0.77-2.17,0.77c-0.43,0.00-0.55-0.26-0.55-0.51l0.00-0.17c0.00-0.21,0.04-0.43,0.30-0.55c3.40-1.40,2.89-0.47,3.27-2.64c0.60-3.19,0.38-4.04,1.70-4.72c0.34-0.17,0.77-0.30,1.23-0.30c0.43,0.00,0.60,0.30,0.60,0.72c0.00,1.28-1.15,3.87-1.15,5.06l0.00,0.17c0.00,0.13,0.04,0.21,0.21,0.21c0.38,0.00,1.32-0.21,3.61-0.21c3.91,0.00,7.52,1.19,7.52,5.70c0.00,2.64-0.38,4.17-1.66,6.33c-0.94,1.62-1.40,2.72-3.70,4.38c-1.79,1.28-3.53,1.79-5.61,1.79c-0.64,0.00-1.70-0.17-2.30-0.17c-0.64,0.00-0.51,0.04-0.85,2.55c-0.17,1.28-0.43,2.68-0.43,3.10c0.00,2.13,3.53,1.32,3.53,2.30c0.00,0.38-0.26,0.55-0.60,0.55c-1.45,0.00-3.06-0.04-4.25-0.04c-0.94,0.00-1.79,0.04-2.30,0.04l-0.38,0.00c-0.30,0.00-0.72-0.17-0.72-0.55z  M693.30,227.83c0.00,0.26,0.47,1.02,2.42,1.02c4.25,0.00,7.86-5.95,7.86-9.78c0.00-5.82-5.61-6.21-7.14-6.21c-0.68,0.00-0.77,0.13-1.02,0.13c-0.30,0.00-0.47,1.06-0.72,3.27l-0.55,4.72c-0.26,1.91-0.85,5.61-0.85,6.84z"/>
		<path d="M709.42,223.75c0.00-3.66,1.87-7.31,4.80-10.03c1.57-1.49,3.53-2.25,5.91-2.25c2.00,0.00,3.70,1.28,3.70,3.15c0.00,3.06-3.32,4.80-4.12,5.14c-0.38,0.17-2.68,1.11-6.67,1.15c-0.60,0.00-0.72,0.64-0.72,1.74c0.00,3.19,1.91,5.31,6.12,5.31c2.42,0.00,4.12-1.83,4.59-1.83c0.34,0.00,0.51,0.17,0.51,0.43c0.00,0.98-3.70,3.95-7.40,3.95c-5.40,0.00-6.72-2.98-6.72-6.76z  M712.90,219.33c0.00,0.30,0.09,0.85,0.38,0.85c4.12,0.00,7.61-2.76,7.61-5.44c0.00-1.62-1.53-2.00-2.25-2.00c-1.06,0.00-2.38,0.85-3.49,2.00c-1.28,1.32-2.25,4.04-2.25,4.59z"/>
		<path d="M725.78,217.42c0.00-4.85,3.61-5.87,4.00-5.87c0.89,0.00,1.32,0.81,1.57,1.49c1.06,2.76,1.11,2.81,1.19,2.81c0.30,0.00,2.42-4.38,5.57-4.38c1.11,0.00,1.57,0.72,1.57,1.32c0.00,0.55-0.34,1.11-0.47,1.57c-0.09,0.30-0.17,1.62-0.94,1.62c-0.94,0.00-0.77-1.79-2.30-1.79c-1.91,0.00-2.98,5.57-3.19,7.35l-0.21,1.40c-0.94,7.23-0.85,7.23-2.38,7.23l-0.21,0.00c-0.43,0.00-1.28-0.09-1.28-1.11c0.00-1.70,1.83-7.95,1.83-11.14c0.00-2.13-0.68-2.89-1.45-2.89c-1.74,0.00-2.08,2.55-2.34,2.85c-0.13,0.13-0.26,0.26-0.47,0.26c-0.17,0.00-0.51-0.13-0.51-0.72z"/>
		<path d="M739.38,225.15c0.00-2.38,1.06-4.80,2.38-6.93c1.53-2.42,3.49-4.46,5.74-5.53c1.15-0.55,2.00-0.77,3.10-0.77c1.32,0.00,2.21,0.47,3.61,0.47c0.85,0.00,1.36-2.08,2.21-2.08c0.26,0.00,0.47,0.17,0.47,0.64c0.00,0.68-0.55,1.70-0.85,2.93c-0.38,1.57-0.64,3.53-0.98,5.44c-0.34,1.87-0.77,3.83-0.77,5.44c0.00,1.11,0.64,2.51,1.45,2.51c1.40,0.00,2.30-2.76,3.10-2.76c0.34,0.00,0.38,0.30,0.38,0.47c0.00,0.43-0.21,1.06-0.77,1.83c-1.06,1.53-2.98,3.49-4.12,3.49c-2.72,0.00-2.34-4.76-2.64-4.76c-0.21,0.00-3.74,5.10-7.78,5.10s-4.55-2.72-4.55-5.48z  M742.36,224.90c0.00,2.13,1.53,3.40,3.32,3.40c3.06,0.00,5.06-3.06,5.44-3.83c1.02-2.04,2.17-9.86,2.17-9.99c0.00-1.19-1.91-1.49-2.81-1.49c-1.74,0.00-4.00,1.28-5.27,3.44c-1.23,2.04-2.25,3.95-2.64,6.16c-0.13,0.77-0.21,1.53-0.21,2.30z"/>
		<path d="M760.64,216.35c0.00-1.66,2.55-4.85,4.17-4.85c2.47,0.00,1.57,4.46,1.96,4.46c0.26,0.00,0.55-0.94,2.13-2.13c1.15-0.89,3.40-2.42,5.19-2.42c2.98,0.00,3.57,2.64,3.57,5.31c0.00,2.98-0.72,7.48-0.72,8.93c0.00,1.19,0.34,1.53,0.81,1.53c0.72,0.00,1.70-0.94,1.70-0.94c0.51-0.64,0.68-1.15,1.32-1.15c0.30,0.00,0.38,0.26,0.38,0.51c0.00,1.66-3.74,4.63-5.61,4.63c-0.85,0.00-1.57-1.19-1.57-2.68c0.00-3.23,0.89-8.93,0.89-10.50c0.00-0.68-0.21-3.49-2.98-3.49c-0.98,0.00-1.79,0.47-2.76,1.87c-1.83,2.59-1.32,2.21-2.34,7.69c-1.06,5.74-0.77,5.23-0.85,5.82c-0.13,0.94-0.47,1.11-1.57,1.11c-1.15,0.00-1.49-0.09-1.49-1.32c0.00-1.79,1.87-8.37,1.87-11.65c0.00-1.49-0.55-2.34-0.98-2.34c-1.32,0.00-1.79,2.38-2.72,2.38c-0.30,0.00-0.38-0.34-0.38-0.81z"/>
		<path d="M783.21,213.42c0.00-0.85,1.62-0.81,3.49-2.76c1.70-1.79,1.79-2.34,2.47-2.34c0.21,0.00,0.43,0.13,0.43,0.51c0.00,0.55-0.77,2.55-0.77,3.19c0.00,0.26,0.09,0.30,1.49,0.30c1.66,0.00,2.00-0.04,2.47-0.04c0.89,0.00,1.11,0.30,1.11,0.81c0.00,0.98-0.26,1.23-1.02,1.23c-0.68,0.00-2.51-0.21-3.44-0.21c-1.23,0.00-1.11,0.77-1.36,2.51c-0.38,2.64-1.36,8.16-1.36,8.84c0.00,2.25,1.57,2.34,1.74,2.34c2.34,0.00,3.32-1.87,4.00-1.87c0.13,0.00,0.47,0.00,0.47,0.60c0.00,1.11-3.61,4.00-6.25,4.00c-1.15,0.00-2.72-0.68-2.72-4.00c0.00-3.91,1.79-10.80,1.79-11.94c0.00-0.89-2.51,0.04-2.51-1.15z"/>
		<path d="M795.45,222.82c0.00-5.27,3.57-11.31,10.03-11.31c4.25,0.00,6.21,3.53,6.21,7.52c0.00,5.31-3.49,11.39-9.73,11.39c-3.49,0.00-6.50-2.42-6.50-7.61z  M798.72,222.86c0.00,4.29,1.70,6.29,3.70,6.29c4.55,0.00,6.12-7.10,6.12-10.63c0.00-4.00-1.70-5.74-3.66-5.74c-2.04,0.00-4.34,1.87-5.31,5.31c-0.43,1.49-0.85,3.02-0.85,4.76z"/>
		<path d="M822.95,229.62c0.00-0.98,1.06-0.68,2.21-1.32c1.06-0.60,0.77-0.85,2.59-16.49c0.34-2.76,1.06-7.78,1.06-8.33c0.00-1.74-1.49-2.21-2.64-2.30c-0.77-0.04-1.36-0.09-1.36-0.51c0.00-0.64,0.38-0.77,1.28-0.77s2.38,0.26,3.44,0.26c2.38,0.00,3.61-0.34,7.01-0.34c1.02,0.00,1.96,0.00,2.85,0.09c4.00,0.34,6.29,3.23,6.29,6.42c0.00,3.06-2.08,6.38-6.76,7.99c-0.30,0.09-0.38,0.38-0.38,0.47c0.00,0.85,3.91,9.99,5.48,12.07c1.15,1.57,2.08,2.04,3.49,2.04c0.43,0.00,0.81,0.17,0.81,0.47c0.00,0.38-0.64,0.98-2.98,0.98c-3.44,0.00-4.08-0.72-5.74-4.42c-3.02-6.76-3.83-10.80-4.93-10.80c-0.26,0.00-1.70,0.04-1.96,0.04c-0.64,0.00-1.02-0.04-1.49-0.04c-0.64,0.00-0.81,0.72-1.11,3.74l-0.60,5.99c0.00,0.26-0.13,1.28-0.13,1.49c0.00,2.89,3.78,2.08,3.78,3.23c0.00,0.43-0.64,0.55-1.45,0.55c-1.19,0.00-2.72-0.26-3.19-0.26c-2.04,0.00-4.00,0.38-4.46,0.38c-0.43,0.00-1.15-0.17-1.15-0.64z  M830.95,212.49c0.00,0.98,0.68,1.11,1.32,1.11l0.60,0.00c3.61,0.00,4.34-0.13,5.10-0.30c3.15-0.72,4.04-4.68,4.04-6.50c0.00-2.72-2.00-5.53-6.08-5.53c-2.21,0.00-3.74,0.30-3.91,2.64c-0.30,4.25-1.06,7.99-1.06,8.59z"/>
		<path d="M850.12,223.75c0.00-3.66,1.87-7.31,4.80-10.03c1.57-1.49,3.53-2.25,5.91-2.25c2.00,0.00,3.70,1.28,3.70,3.15c0.00,3.06-3.32,4.80-4.12,5.14c-0.38,0.17-2.68,1.11-6.67,1.15c-0.60,0.00-0.72,0.64-0.72,1.74c0.00,3.19,1.91,5.31,6.12,5.31c2.42,0.00,4.12-1.83,4.59-1.83c0.34,0.00,0.51,0.17,0.51,0.43c0.00,0.98-3.70,3.95-7.40,3.95c-5.40,0.00-6.72-2.98-6.72-6.76z  M853.60,219.33c0.00,0.30,0.09,0.85,0.38,0.85c4.12,0.00,7.61-2.76,7.61-5.44c0.00-1.62-1.53-2.00-2.25-2.00c-1.06,0.00-2.38,0.85-3.49,2.00c-1.28,1.32-2.25,4.04-2.25,4.59z"/>
		<path d="M867.21,225.15c0.00-2.38,1.06-4.80,2.38-6.93c1.53-2.42,3.49-4.46,5.74-5.53c1.15-0.55,2.00-0.77,3.10-0.77c1.32,0.00,2.21,0.47,3.61,0.47c0.85,0.00,1.36-2.08,2.21-2.08c0.26,0.00,0.47,0.17,0.47,0.64c0.00,0.68-0.55,1.70-0.85,2.93c-0.38,1.57-0.64,3.53-0.98,5.44c-0.34,1.87-0.77,3.83-0.77,5.44c0.00,1.11,0.64,2.51,1.45,2.51c1.40,0.00,2.30-2.76,3.10-2.76c0.34,0.00,0.38,0.30,0.38,0.47c0.00,0.43-0.21,1.06-0.77,1.83c-1.06,1.53-2.98,3.49-4.12,3.49c-2.72,0.00-2.34-4.76-2.64-4.76c-0.21,0.00-3.74,5.10-7.78,5.10s-4.55-2.72-4.55-5.48z  M870.18,224.90c0.00,2.13,1.53,3.40,3.32,3.40c3.06,0.00,5.06-3.06,5.44-3.83c1.02-2.04,2.17-9.86,2.17-9.99c0.00-1.19-1.91-1.49-2.81-1.49c-1.74,0.00-4.00,1.28-5.27,3.44c-1.23,2.04-2.25,3.95-2.64,6.16c-0.13,0.77-0.21,1.53-0.21,2.30z"/>
		<path d="M888.37,224.69c0.00-6.59,5.53-12.92,10.58-12.92c1.11,0.00,1.96,0.55,3.15,0.55c0.13,0.00,1.53-11.18,1.53-11.48c0.00-0.64-0.60-1.06-1.23-1.06c-0.47,0.00-1.45,0.04-1.49,0.04c-0.43,0.00-0.68-0.17-0.68-0.47c0.00-0.72,1.49-0.55,2.68-0.85c2.38-0.60,2.13-0.68,3.27-0.68c0.38,0.00,0.68,0.34,0.68,0.72c0.00,1.11-0.43,2.47-2.81,19.85c-0.47,3.23-0.89,5.91-0.89,7.18c0.00,0.94,0.13,1.83,1.11,1.83c1.87,0.00,2.85-2.64,3.53-2.64c0.34,0.00,0.47,0.21,0.47,0.38c0.00,0.89-2.68,5.19-5.44,5.19c-2.98,0.00-2.00-4.76-2.59-4.76c-0.38,0.00-2.55,4.76-6.76,4.76c-3.61,0.00-5.10-2.47-5.10-5.65z  M891.35,223.50c0.00,2.47,1.02,4.38,3.61,4.38c1.53,0.00,3.19-0.81,4.29-2.21c1.70-2.13,2.34-9.61,2.34-11.31c0.00-1.15-1.70-1.70-2.85-1.70c-3.91,0.00-7.40,6.38-7.40,10.84z"/>
		<path d="M909.63,223.75c0.00-3.66,1.87-7.31,4.80-10.03c1.57-1.49,3.53-2.25,5.91-2.25c2.00,0.00,3.70,1.28,3.70,3.15c0.00,3.06-3.32,4.80-4.12,5.14c-0.38,0.17-2.68,1.11-6.67,1.15c-0.60,0.00-0.72,0.64-0.72,1.74c0.00,3.19,1.91,5.31,6.12,5.31c2.42,0.00,4.12-1.83,4.59-1.83c0.34,0.00,0.51,0.17,0.51,0.43c0.00,0.98-3.70,3.95-7.40,3.95c-5.40,0.00-6.72-2.98-6.72-6.76z  M913.11,219.33c0.00,0.30,0.09,0.85,0.38,0.85c4.12,0.00,7.61-2.76,7.61-5.44c0.00-1.62-1.53-2.00-2.25-2.00c-1.06,0.00-2.38,0.85-3.49,2.00c-1.28,1.32-2.25,4.04-2.25,4.59z"/>
		<path d="M925.99,217.42c0.00-4.85,3.61-5.87,4.00-5.87c0.89,0.00,1.32,0.81,1.57,1.49c1.06,2.76,1.11,2.81,1.19,2.81c0.30,0.00,2.42-4.38,5.57-4.38c1.11,0.00,1.57,0.72,1.57,1.32c0.00,0.55-0.34,1.11-0.47,1.57c-0.09,0.30-0.17,1.62-0.94,1.62c-0.94,0.00-0.77-1.79-2.30-1.79c-1.91,0.00-2.98,5.57-3.19,7.35l-0.21,1.40c-0.94,7.23-0.85,7.23-2.38,7.23l-0.21,0.00c-0.43,0.00-1.28-0.09-1.28-1.11c0.00-1.70,1.83-7.95,1.83-11.14c0.00-2.13-0.68-2.89-1.45-2.89c-1.74,0.00-2.08,2.55-2.34,2.85c-0.13,0.13-0.26,0.26-0.47,0.26c-0.17,0.00-0.51-0.13-0.51-0.72z"/>
	</g>
	<g aria-label="translated from “The Dance of Death” by">
		<path d="M361.76,273.42c0.00-0.85,1.62-0.81,3.49-2.76c1.70-1.79,1.79-2.34,2.47-2.34c0.21,0.00,0.43,0.13,0.43,0.51c0.00,0.55-0.77,2.55-0.77,3.19c0.00,0.26,0.09,0.30,1.49,0.30c1.66,0.00,2.00-0.04,2.47-0.04c0.89,0.00,1.11,0.30,1.11,0.81c0.00,0.98-0.26,1.23-1.02,1.23c-0.68,0.00-2.51-0.21-3.44-0.21c-1.23,0.00-1.11,0.77-1.36,2.51c-0.38,2.64-1.36,8.16-1.36,8.84c0.00,2.25,1.57,2.34,1.74,2.34c2.34,0.00,3.32-1.87,4.00-1.87c0.13,0.00,0.47,0.00,0.47,0.60c0.00,1.11-3.61,4.00-6.25,4.00c-1.15,0.00-2.72-0.68-2.72-4.00c0.00-3.91,1.79-10.80,1.79-11.94c0.00-0.89-2.51,0.04-2.51-1.15z"/>
		<path d="M373.88,277.42c0.00-4.85,3.61-5.87,4.00-5.87c0.89,0.00,1.32,0.81,1.57,1.49c1.06,2.76,1.11,2.81,1.19,2.81c0.30,0.00,2.42-4.38,5.57-4.38c1.11,0.00,1.57,0.72,1.57,1.32c0.00,0.55-0.34,1.11-0.47,1.57c-0.09,0.30-0.17,1.62-0.94,1.62c-0.94,0.00-0.77-1.79-2.30-1.79c-1.91,0.00-2.98,5.57-3.19,7.35l-0.21,1.40c-0.94,7.23-0.85,7.23-2.38,7.23l-0.21,0.00c-0.43,0.00-1.28-0.09-1.28-1.11c0.00-1.70,1.83-7.95,1.83-11.14c0.00-2.13-0.68-2.89-1.45-2.89c-1.74,0.00-2.08,2.55-2.34,2.85c-0.13,0.13-0.26,0.26-0.47,0.26c-0.17,0.00-0.51-0.13-0.51-0.72z"/>
		<path d="M387.48,285.15c0.00-2.38,1.06-4.80,2.38-6.93c1.53-2.42,3.49-4.46,5.74-5.53c1.15-0.55,2.00-0.77,3.10-0.77c1.32,0.00,2.21,0.47,3.61,0.47c0.85,0.00,1.36-2.08,2.21-2.08c0.26,0.00,0.47,0.17,0.47,0.64c0.00,0.68-0.55,1.70-0.85,2.93c-0.38,1.57-0.64,3.53-0.98,5.44c-0.34,1.87-0.77,3.83-0.77,5.44c0.00,1.11,0.64,2.51,1.45,2.51c1.40,0.00,2.30-2.76,3.10-2.76c0.34,0.00,0.38,0.30,0.38,0.47c0.00,0.43-0.21,1.06-0.77,1.83c-1.06,1.53-2.98,3.49-4.12,3.49c-2.72,0.00-2.34-4.76-2.64-4.76c-0.21,0.00-3.74,5.10-7.78,5.10s-4.55-2.72-4.55-5.48z  M390.46,284.90c0.00,2.13,1.53,3.40,3.32,3.40c3.06,0.00,5.06-3.06,5.44-3.83c1.02-2.04,2.17-9.86,2.17-9.99c0.00-1.19-1.91-1.49-2.81-1.49c-1.74,0.00-4.00,1.28-5.27,3.44c-1.23,2.04-2.25,3.95-2.64,6.16c-0.13,0.77-0.21,1.53-0.21,2.30z"/>
		<path d="M408.74,276.35c0.00-1.66,2.55-4.85,4.17-4.85c2.47,0.00,1.57,4.46,1.96,4.46c0.26,0.00,0.55-0.94,2.13-2.13c1.15-0.89,3.40-2.42,5.19-2.42c2.98,0.00,3.57,2.64,3.57,5.31c0.00,2.98-0.72,7.48-0.72,8.93c0.00,1.19,0.34,1.53,0.81,1.53c0.72,0.00,1.70-0.94,1.70-0.94c0.51-0.64,0.68-1.15,1.32-1.15c0.30,0.00,0.38,0.26,0.38,0.51c0.00,1.66-3.74,4.63-5.61,4.63c-0.85,0.00-1.57-1.19-1.57-2.68c0.00-3.23,0.89-8.93,0.89-10.50c0.00-0.68-0.21-3.49-2.98-3.49c-0.98,0.00-1.79,0.47-2.76,1.87c-1.83,2.59-1.32,2.21-2.34,7.69c-1.06,5.74-0.77,5.23-0.85,5.82c-0.13,0.94-0.47,1.11-1.57,1.11c-1.15,0.00-1.49-0.09-1.49-1.32c0.00-1.79,1.87-8.37,1.87-11.65c0.00-1.49-0.55-2.34-0.98-2.34c-1.32,0.00-1.79,2.38-2.72,2.38c-0.30,0.00-0.38-0.34-0.38-0.81z"/>
		<path d="M430.71,287.70c0.00-1.32,0.85-1.53,1.36-1.53c2.17,0.00,1.45,2.93,4.04,2.93c3.10,0.00,3.40-2.21,3.40-2.72c0.00-2.00-1.40-3.23-2.93-4.76c-1.70-1.74-3.32-2.85-3.32-5.40c0.00-2.85,2.47-4.80,5.78-4.80c2.30,0.00,3.95,0.55,3.95,2.21c0.00,1.32-1.40,1.45-1.62,1.45c-1.53,0.00-1.70-2.38-3.36-2.38c-1.62,0.00-2.25,0.98-2.25,2.25c0.00,1.62,2.34,3.36,3.36,4.46c1.32,1.49,2.93,2.68,2.93,5.53c0.00,1.53-1.19,5.57-6.63,5.57c-1.66,0.00-4.72-0.55-4.72-2.81z"/>
		<path d="M445.76,286.34c0.00-2.42,1.11-7.44,1.19-8.12c0.38-2.68,0.60-5.70,1.02-8.42c0.72-4.59,1.36-8.42,1.36-8.93s-0.43-0.85-1.06-0.85s-0.72,0.04-1.23,0.04c-0.85,0.00-1.23-0.13-1.23-0.60c0.00-0.21,0.09-0.55,0.64-0.60c3.10-0.21,4.04-0.64,5.14-0.64c0.68,0.00,0.89,0.26,0.89,0.68c0.00,0.60-0.30,1.15-0.43,1.96c-1.57,8.25-0.85,6.67-2.21,15.81c-0.72,5.02-1.23,7.69-1.23,9.14s0.13,1.66,0.68,1.66c2.34,0.00,2.76-3.02,3.87-3.02c0.30,0.00,0.51,0.26,0.51,0.68s-1.11,1.87-2.13,3.06c-1.11,1.28-2.89,2.13-3.70,2.13c-0.85,0.00-2.08,0.00-2.08-4.00z"/>
		<path d="M456.26,285.15c0.00-2.38,1.06-4.80,2.38-6.93c1.53-2.42,3.49-4.46,5.74-5.53c1.15-0.55,2.00-0.77,3.10-0.77c1.32,0.00,2.21,0.47,3.61,0.47c0.85,0.00,1.36-2.08,2.21-2.08c0.26,0.00,0.47,0.17,0.47,0.64c0.00,0.68-0.55,1.70-0.85,2.93c-0.38,1.57-0.64,3.53-0.98,5.44c-0.34,1.87-0.77,3.83-0.77,5.44c0.00,1.11,0.64,2.51,1.45,2.51c1.40,0.00,2.30-2.76,3.10-2.76c0.34,0.00,0.38,0.30,0.38,0.47c0.00,0.43-0.21,1.06-0.77,1.83c-1.06,1.53-2.98,3.49-4.12,3.49c-2.72,0.00-2.34-4.76-2.64-4.76c-0.21,0.00-3.74,5.10-7.78,5.10s-4.55-2.72-4.55-5.48z  M459.23,284.90c0.00,2.13,1.53,3.40,3.32,3.40c3.06,0.00,5.06-3.06,5.44-3.83c1.02-2.04,2.17-9.86,2.17-9.99c0.00-1.19-1.91-1.49-2.81-1.49c-1.74,0.00-4.00,1.28-5.27,3.44c-1.23,2.04-2.25,3.95-2.64,6.16c-0.13,0.77-0.21,1.53-0.21,2.30z"/>
		<path d="M478.15,273.42c0.00-0.85,1.62-0.81,3.49-2.76c1.70-1.79,1.79-2.34,2.47-2.34c0.21,0.00,0.43,0.13,0.43,0.51c0.00,0.55-0.77,2.55-0.77,3.19c0.00,0.26,0.09,0.30,1.49,0.30c1.66,0.00,2.00-0.04,2.47-0.04c0.89,0.00,1.11,0.30,1.11,0.81c0.00,0.98-0.26,1.23-1.02,1.23c-0.68,0.00-2.51-0.21-3.44-0.21c-1.23,0.00-1.11,0.77-1.36,2.51c-0.38,2.64-1.36,8.16-1.36,8.84c0.00,2.25,1.57,2.34,1.74,2.34c2.34,0.00,3.32-1.87,4.00-1.87c0.13,0.00,0.47,0.00,0.47,0.60c0.00,1.11-3.61,4.00-6.25,4.00c-1.15,0.00-2.72-0.68-2.72-4.00c0.00-3.91,1.79-10.80,1.79-11.94c0.00-0.89-2.51,0.04-2.51-1.15z"/>
		<path d="M490.39,283.75c0.00-3.66,1.87-7.31,4.80-10.03c1.57-1.49,3.53-2.25,5.91-2.25c2.00,0.00,3.70,1.28,3.70,3.15c0.00,3.06-3.32,4.80-4.12,5.14c-0.38,0.17-2.68,1.11-6.67,1.15c-0.60,0.00-0.72,0.64-0.72,1.74c0.00,3.19,1.91,5.31,6.12,5.31c2.42,0.00,4.12-1.83,4.59-1.83c0.34,0.00,0.51,0.17,0.51,0.43c0.00,0.98-3.70,3.95-7.40,3.95c-5.40,0.00-6.72-2.98-6.72-6.76z  M493.88,279.33c0.00,0.30,0.09,0.85,0.38,0.85c4.12,0.00,7.61-2.76,7.61-5.44c0.00-1.62-1.53-2.00-2.25-2.00c-1.06,0.00-2.38,0.85-3.49,2.00c-1.28,1.32-2.25,4.04-2.25,4.59z"/>
		<path d="M506.84,284.69c0.00-6.59,5.53-12.92,10.58-12.92c1.11,0.00,1.96,0.55,3.15,0.55c0.13,0.00,1.53-11.18,1.53-11.48c0.00-0.64-0.60-1.06-1.23-1.06c-0.47,0.00-1.45,0.04-1.49,0.04c-0.43,0.00-0.68-0.17-0.68-0.47c0.00-0.72,1.49-0.55,2.68-0.85c2.38-0.60,2.13-0.68,3.27-0.68c0.38,0.00,0.68,0.34,0.68,0.72c0.00,1.11-0.43,2.47-2.81,19.85c-0.47,3.23-0.89,5.91-0.89,7.18c0.00,0.94,0.13,1.83,1.11,1.83c1.87,0.00,2.85-2.64,3.53-2.64c0.34,0.00,0.47,0.21,0.47,0.38c0.00,0.89-2.68,5.19-5.44,5.19c-2.98,0.00-2.00-4.76-2.59-4.76c-0.38,0.00-2.55,4.76-6.76,4.76c-3.61,0.00-5.10-2.47-5.10-5.65z  M509.82,283.50c0.00,2.47,1.02,4.38,3.61,4.38c1.53,0.00,3.19-0.81,4.29-2.21c1.70-2.13,2.34-9.61,2.34-11.31c0.00-1.15-1.70-1.70-2.85-1.70c-3.91,0.00-7.40,6.38-7.40,10.84z"/>
		<path d="M534.39,296.63c0.00-0.34,0.38-2.89,1.23-2.89c0.21,0.00,0.51,0.17,0.55,0.60c0.17,1.02,1.06,1.53,1.28,1.53c1.36,0.00,1.45-5.02,2.00-8.97c0.00,0.00,1.70-12.16,1.70-12.24c0.00-0.34-0.13-0.55-0.43-0.55l-2.59,0.00c-0.94,0.00-1.06-0.26-1.06-0.77c0.00-0.81,0.13-1.06,1.11-1.06c0.00,0.00,2.13,0.09,3.06,0.09c0.13,0.00,0.26,0.00,0.30-0.30c0.43-2.93,1.19-7.01,3.66-10.54c1.49-2.08,3.10-3.40,5.36-3.40c1.40,0.00,2.00,0.47,2.00,1.57c0.00,0.34-0.13,2.42-0.72,2.42c-0.89,0.00-1.62-1.74-3.53-1.74c-2.21,0.00-4.21,10.97-4.21,11.56c0.00,0.34,0.17,0.43,0.51,0.43c0.89,0.00,2.34-0.09,3.44-0.09c0.64,0.00,0.81,0.30,0.81,0.72s-0.13,1.15-0.85,1.15c-1.66,0.00-2.42-0.09-3.57-0.09c-0.77,0.00-0.68,0.38-0.77,1.06c-0.21,1.91-0.64,7.10-1.19,11.52c-0.34,2.85-0.77,5.44-1.19,6.46c-1.66,4.00-4.46,4.55-5.36,4.55c-0.72,0.00-1.53-0.34-1.53-1.02z"/>
		<path d="M549.69,277.42c0.00-4.85,3.61-5.87,4.00-5.87c0.89,0.00,1.32,0.81,1.57,1.49c1.06,2.76,1.11,2.81,1.19,2.81c0.30,0.00,2.42-4.38,5.57-4.38c1.11,0.00,1.57,0.72,1.57,1.32c0.00,0.55-0.34,1.11-0.47,1.57c-0.09,0.30-0.17,1.62-0.94,1.62c-0.94,0.00-0.77-1.79-2.30-1.79c-1.91,0.00-2.98,5.57-3.19,7.35l-0.21,1.40c-0.94,7.23-0.85,7.23-2.38,7.23l-0.21,0.00c-0.43,0.00-1.28-0.09-1.28-1.11c0.00-1.70,1.83-7.95,1.83-11.14c0.00-2.13-0.68-2.89-1.45-2.89c-1.74,0.00-2.08,2.55-2.34,2.85c-0.13,0.13-0.26,0.26-0.47,0.26c-0.17,0.00-0.51-0.13-0.51-0.72z"/>
		<path d="M563.29,282.82c0.00-5.27,3.57-11.31,10.03-11.31c4.25,0.00,6.21,3.53,6.21,7.52c0.00,5.31-3.49,11.39-9.73,11.39c-3.49,0.00-6.50-2.42-6.50-7.61z  M566.57,282.86c0.00,4.29,1.70,6.29,3.70,6.29c4.55,0.00,6.12-7.10,6.12-10.63c0.00-4.00-1.70-5.74-3.66-5.74c-2.04,0.00-4.34,1.87-5.31,5.31c-0.43,1.49-0.85,3.02-0.85,4.76z"/>
		<path d="M581.70,276.31c0.00-1.28,2.47-4.72,4.08-4.72c2.47,0.00,1.74,4.38,2.30,4.38c0.30,0.00,1.28-2.47,5.23-3.87c1.06-0.38,1.87-0.47,2.47-0.47c2.08,0.00,2.51,1.83,2.51,3.15l0.00,0.89c0.00,0.17,0.04,0.34,0.09,0.34c0.30,0.00,0.55-0.85,1.57-1.79c1.28-1.23,3.32-2.64,5.27-2.64c3.36,0.00,3.49,3.95,3.49,4.51c0.00,1.91-0.85,8.37-0.85,9.78c0.00,1.11,0.38,1.49,0.85,1.49c0.77,0.00,1.83-0.98,1.83-0.98c0.51-0.64,0.64-1.19,1.28-1.19c0.30,0.00,0.43,0.26,0.43,0.51c0.00,1.66-3.74,4.42-5.61,4.42c-0.85,0.00-1.57-1.19-1.57-2.68c0.00-0.81,0.94-7.95,0.94-10.54c0.00-2.25-1.40-3.27-2.30-3.27c-2.85,0.00-4.72,4.51-4.80,4.85c-0.64,2.25-0.98,7.65-1.28,10.63c-0.09,1.02-1.19,1.15-1.74,1.15c-0.85,0.00-1.19-0.64-1.19-1.36c0.00-1.06,1.53-8.16,1.53-12.20c0.00-0.51-0.26-3.02-3.02-3.02c-0.98,0.00-3.74,0.81-4.97,7.06c-0.64,3.32-0.85,7.14-1.11,8.54c-0.09,0.55-0.85,0.94-1.62,0.94s-1.49-0.21-1.49-1.45c0.00-1.79,1.91-8.54,1.91-11.82c0.00-1.66-0.68-2.08-1.11-2.08c-1.32,0.00-1.66,2.47-2.59,2.47c-0.47,0.00-0.51-0.47-0.51-1.02z"/>
		<path d="M625.23,267.47c0.00-4.55,4.17-7.57,5.02-7.57c0.43,0.00,0.55,0.34,0.55,0.55c0.00,0.98-1.62,0.81-2.55,3.27c-0.21,0.51-0.51,1.19-0.51,1.96c0.00,2.51,2.17,2.59,2.17,3.74c0.00,0.38-1.53,2.42-2.42,2.42c-0.34,0.00-2.25-0.89-2.25-4.38z  M632.50,267.47c0.00-4.55,4.17-7.57,5.02-7.57c0.43,0.00,0.55,0.34,0.55,0.55c0.00,0.98-1.62,0.81-2.55,3.27c-0.21,0.51-0.51,1.19-0.51,1.96c0.00,2.51,2.17,2.59,2.17,3.74c0.00,0.38-1.53,2.42-2.42,2.42c-0.34,0.00-2.25-0.89-2.25-4.38z"/>
		<path d="M640.79,265.64c0.00-1.32,0.51-1.23,1.36-4.55c0.26-0.94,0.68-1.11,1.96-1.11c2.98,0.00,1.57,0.13,10.97,0.13c7.23,0.00,10.50-0.17,11.94-0.17c1.19,0.00,1.19,0.47,1.19,0.85c0.00,2.47,0.17,3.91,0.17,4.72c0.00,0.89-0.43,0.98-0.81,0.98c-0.68,0.00-0.30-0.38-1.15-2.72c-0.47-1.32-1.06-1.40-6.33-1.40l-1.91,0.00c-1.62,0.00-1.36,0.30-1.83,4.76c-0.98,9.39-2.25,17.05-2.25,19.21c0.00,3.44,3.66,1.74,3.66,3.10c0.00,0.51-0.38,0.64-1.06,0.64c-0.85,0.00-2.68-0.26-4.55-0.26c-1.36,0.00-2.89,0.21-3.66,0.21c-0.72,0.00-1.36-0.13-1.36-0.60c0.00-0.68,0.60-0.64,1.32-0.72c0.64-0.09,1.28-0.21,1.74-0.94c0.30-0.47,0.38-1.11,0.47-1.74c0.60-4.46,2.93-22.74,2.93-23.17c0.00-0.68-0.68-0.68-3.02-0.68c-5.91,0.00-6.42,0.47-7.31,1.45c-1.32,1.53-0.85,2.93-1.91,2.93c-0.43,0.00-0.55-0.47-0.55-0.94z"/>
		<path d="M668.97,289.02c0.00-1.15,0.89-5.44,1.23-7.78c0.47-3.15,3.02-19.94,3.02-20.23c0.00-0.72-0.43-0.98-1.19-0.98c-0.89,0.00-1.40,0.04-1.74,0.04c-0.26,0.00-0.55-0.09-0.55-0.51c0.00-0.21,0.17-0.47,1.62-0.60c3.49-0.30,3.66-0.72,4.59-0.72c0.30,0.00,0.51,0.26,0.51,0.55c0.00,0.94-2.55,12.41-2.55,16.28c0.00,0.26,0.04,0.47,0.17,0.47c0.43,0.00,2.72-3.61,6.16-3.61c2.93,0.00,3.78,2.17,3.78,4.80c0.00,2.42-1.02,6.63-1.02,8.59c0.00,1.15,0.38,1.96,1.02,1.96c0.68,0.00,1.23-0.43,1.79-0.77c0.89-0.55,1.40-1.74,1.74-1.74c0.26,0.00,0.43,0.13,0.43,0.34c0.00,1.96-3.66,5.02-5.53,5.02c-1.74,0.00-2.08-2.13-2.08-3.95c0.00-2.64,0.77-6.12,0.77-8.67c0.00-2.68-1.15-3.32-2.42-3.32c-1.53,0.00-3.91,0.77-5.06,3.70c-0.85,2.13-1.11,6.55-1.70,10.88c-0.17,1.11-0.68,1.28-1.57,1.28c-0.47,0.00-1.40-0.17-1.40-1.02z"/>
		<path d="M689.71,283.75c0.00-3.66,1.87-7.31,4.80-10.03c1.57-1.49,3.53-2.25,5.91-2.25c2.00,0.00,3.70,1.28,3.70,3.15c0.00,3.06-3.32,4.80-4.12,5.14c-0.38,0.17-2.68,1.11-6.67,1.15c-0.60,0.00-0.72,0.64-0.72,1.74c0.00,3.19,1.91,5.31,6.12,5.31c2.42,0.00,4.12-1.83,4.59-1.83c0.34,0.00,0.51,0.17,0.51,0.43c0.00,0.98-3.70,3.95-7.40,3.95c-5.40,0.00-6.72-2.98-6.72-6.76z  M693.20,279.33c0.00,0.30,0.09,0.85,0.38,0.85c4.12,0.00,7.61-2.76,7.61-5.44c0.00-1.62-1.53-2.00-2.25-2.00c-1.06,0.00-2.38,0.85-3.49,2.00c-1.28,1.32-2.25,4.04-2.25,4.59z"/>
		<path d="M715.35,289.45c0.00-1.11,2.04,0.04,2.89-2.55c0.17-0.60,0.26-0.98,0.38-1.83l2.89-21.25c0.04-0.34,0.09-0.55,0.09-0.77c0.00-0.89-0.98-1.70-1.91-1.74c-1.32-0.09-1.96-0.47-1.96-0.94c0.00-0.30,0.26-0.77,1.32-0.77c1.53,0.00,2.30,0.47,4.29,0.47c2.34,0.00,3.32-0.43,6.63-0.43c11.52,0.00,15.69,5.65,15.69,11.99c0.00,3.53-1.28,7.31-3.32,10.46c-1.36,2.13-4.29,4.72-5.57,5.48c-2.59,1.57-5.74,2.42-9.61,2.42c-2.51,0.00-2.89-0.13-6.59-0.13c-2.55,0.00-3.44,0.34-4.29,0.34c-0.55,0.00-0.94-0.38-0.94-0.77z  M721.81,286.98c0.00,0.94,0.34,1.57,2.04,1.57l3.74,0.00c2.17,0.00,6.16-1.06,8.67-3.36c4.93-4.46,5.48-11.39,5.48-13.52c0.00-4.12-2.25-10.24-12.24-10.24c-3.32,0.00-4.00,0.04-4.63,2.34c-0.43,1.66-3.06,23.12-3.06,23.21z"/>
		<path d="M747.01,285.15c0.00-2.38,1.06-4.80,2.38-6.93c1.53-2.42,3.49-4.46,5.74-5.53c1.15-0.55,2.00-0.77,3.10-0.77c1.32,0.00,2.21,0.47,3.61,0.47c0.85,0.00,1.36-2.08,2.21-2.08c0.26,0.00,0.47,0.17,0.47,0.64c0.00,0.68-0.55,1.70-0.85,2.93c-0.38,1.57-0.64,3.53-0.98,5.44c-0.34,1.87-0.77,3.83-0.77,5.44c0.00,1.11,0.64,2.51,1.45,2.51c1.40,0.00,2.30-2.76,3.10-2.76c0.34,0.00,0.38,0.30,0.38,0.47c0.00,0.43-0.21,1.06-0.77,1.83c-1.06,1.53-2.98,3.49-4.12,3.49c-2.72,0.00-2.34-4.76-2.64-4.76c-0.21,0.00-3.74,5.10-7.78,5.10s-4.55-2.72-4.55-5.48z  M749.99,284.90c0.00,2.13,1.53,3.40,3.32,3.40c3.06,0.00,5.06-3.06,5.44-3.83c1.02-2.04,2.17-9.86,2.17-9.99c0.00-1.19-1.91-1.49-2.81-1.49c-1.74,0.00-4.00,1.28-5.27,3.44c-1.23,2.04-2.25,3.95-2.64,6.16c-0.13,0.77-0.21,1.53-0.21,2.30z"/>
		<path d="M768.27,276.35c0.00-1.66,2.55-4.85,4.17-4.85c2.47,0.00,1.57,4.46,1.96,4.46c0.26,0.00,0.55-0.94,2.13-2.13c1.15-0.89,3.40-2.42,5.19-2.42c2.98,0.00,3.57,2.64,3.57,5.31c0.00,2.98-0.72,7.48-0.72,8.93c0.00,1.19,0.34,1.53,0.81,1.53c0.72,0.00,1.70-0.94,1.70-0.94c0.51-0.64,0.68-1.15,1.32-1.15c0.30,0.00,0.38,0.26,0.38,0.51c0.00,1.66-3.74,4.63-5.61,4.63c-0.85,0.00-1.57-1.19-1.57-2.68c0.00-3.23,0.89-8.93,0.89-10.50c0.00-0.68-0.21-3.49-2.98-3.49c-0.98,0.00-1.79,0.47-2.76,1.87c-1.83,2.59-1.32,2.21-2.34,7.69c-1.06,5.74-0.77,5.23-0.85,5.82c-0.13,0.94-0.47,1.11-1.57,1.11c-1.15,0.00-1.49-0.09-1.49-1.32c0.00-1.79,1.87-8.37,1.87-11.65c0.00-1.49-0.55-2.34-0.98-2.34c-1.32,0.00-1.79,2.38-2.72,2.38c-0.30,0.00-0.38-0.34-0.38-0.81z"/>
		<path d="M790.75,283.67c0.00-5.82,4.76-12.20,10.80-12.20c0.43,0.00,4.25,0.64,4.25,3.06c0.00,0.85-0.64,1.66-1.40,1.66c-1.83,0.00-2.21-3.06-5.19-3.06c-0.38,0.00-1.62,0.47-2.76,1.49c-0.51,0.47-2.81,3.06-2.81,6.93c0.00,4.34,1.70,6.50,5.02,6.50c3.49,0.00,4.93-2.30,5.70-2.30c0.34,0.00,0.55,0.30,0.55,0.55c0.00,0.60-3.02,4.21-7.74,4.21c-3.10,0.00-6.42-1.15-6.42-6.84z"/>
		<path d="M808.10,283.75c0.00-3.66,1.87-7.31,4.80-10.03c1.57-1.49,3.53-2.25,5.91-2.25c2.00,0.00,3.70,1.28,3.70,3.15c0.00,3.06-3.32,4.80-4.12,5.14c-0.38,0.17-2.68,1.11-6.67,1.15c-0.60,0.00-0.72,0.64-0.72,1.74c0.00,3.19,1.91,5.31,6.12,5.31c2.42,0.00,4.12-1.83,4.59-1.83c0.34,0.00,0.51,0.17,0.51,0.43c0.00,0.98-3.70,3.95-7.40,3.95c-5.40,0.00-6.72-2.98-6.72-6.76z  M811.58,279.33c0.00,0.30,0.09,0.85,0.38,0.85c4.12,0.00,7.61-2.76,7.61-5.44c0.00-1.62-1.53-2.00-2.25-2.00c-1.06,0.00-2.38,0.85-3.49,2.00c-1.28,1.32-2.25,4.04-2.25,4.59z"/>
		<path d="M834.24,282.82c0.00-5.27,3.57-11.31,10.03-11.31c4.25,0.00,6.21,3.53,6.21,7.52c0.00,5.31-3.49,11.39-9.73,11.39c-3.49,0.00-6.50-2.42-6.50-7.61z  M837.51,282.86c0.00,4.29,1.70,6.29,3.70,6.29c4.55,0.00,6.12-7.10,6.12-10.63c0.00-4.00-1.70-5.74-3.66-5.74c-2.04,0.00-4.34,1.87-5.31,5.31c-0.43,1.49-0.85,3.02-0.85,4.76z"/>
		<path d="M849.80,296.63c0.00-0.34,0.38-2.89,1.23-2.89c0.21,0.00,0.51,0.17,0.55,0.60c0.17,1.02,1.06,1.53,1.28,1.53c1.36,0.00,1.45-5.02,2.00-8.97c0.00,0.00,1.70-12.16,1.70-12.24c0.00-0.34-0.13-0.55-0.43-0.55l-2.59,0.00c-0.94,0.00-1.06-0.26-1.06-0.77c0.00-0.81,0.13-1.06,1.11-1.06c0.00,0.00,2.13,0.09,3.06,0.09c0.13,0.00,0.26,0.00,0.30-0.30c0.43-2.93,1.19-7.01,3.66-10.54c1.49-2.08,3.10-3.40,5.36-3.40c1.40,0.00,2.00,0.47,2.00,1.57c0.00,0.34-0.13,2.42-0.72,2.42c-0.89,0.00-1.62-1.74-3.53-1.74c-2.21,0.00-4.21,10.97-4.21,11.56c0.00,0.34,0.17,0.43,0.51,0.43c0.89,0.00,2.34-0.09,3.44-0.09c0.64,0.00,0.81,0.30,0.81,0.72s-0.13,1.15-0.85,1.15c-1.66,0.00-2.42-0.09-3.57-0.09c-0.77,0.00-0.68,0.38-0.77,1.06c-0.21,1.91-0.64,7.10-1.19,11.52c-0.34,2.85-0.77,5.44-1.19,6.46c-1.66,4.00-4.46,4.55-5.36,4.55c-0.72,0.00-1.53-0.34-1.53-1.02z"/>
		<path d="M874.37,289.45c0.00-1.11,2.04,0.04,2.89-2.55c0.17-0.60,0.26-0.98,0.38-1.83l2.89-21.25c0.04-0.34,0.09-0.55,0.09-0.77c0.00-0.89-0.98-1.70-1.91-1.74c-1.32-0.09-1.96-0.47-1.96-0.94c0.00-0.30,0.26-0.77,1.32-0.77c1.53,0.00,2.30,0.47,4.29,0.47c2.34,0.00,3.32-0.43,6.63-0.43c11.52,0.00,15.69,5.65,15.69,11.99c0.00,3.53-1.28,7.31-3.32,10.46c-1.36,2.13-4.29,4.72-5.57,5.48c-2.59,1.57-5.74,2.42-9.61,2.42c-2.51,0.00-2.89-0.13-6.59-0.13c-2.55,0.00-3.44,0.34-4.29,0.34c-0.55,0.00-0.94-0.38-0.94-0.77z  M880.83,286.98c0.00,0.94,0.34,1.57,2.04,1.57l3.74,0.00c2.17,0.00,6.16-1.06,8.67-3.36c4.93-4.46,5.48-11.39,5.48-13.52c0.00-4.12-2.25-10.24-12.24-10.24c-3.32,0.00-4.00,0.04-4.63,2.34c-0.43,1.66-3.06,23.12-3.06,23.21z"/>
		<path d="M906.04,283.75c0.00-3.66,1.87-7.31,4.80-10.03c1.57-1.49,3.53-2.25,5.91-2.25c2.00,0.00,3.70,1.28,3.70,3.15c0.00,3.06-3.32,4.80-4.12,5.14c-0.38,0.17-2.68,1.11-6.67,1.15c-0.60,0.00-0.72,0.64-0.72,1.74c0.00,3.19,1.91,5.31,6.12,5.31c2.42,0.00,4.12-1.83,4.59-1.83c0.34,0.00,0.51,0.17,0.51,0.43c0.00,0.98-3.70,3.95-7.40,3.95c-5.40,0.00-6.72-2.98-6.72-6.76z  M909.52,279.33c0.00,0.30,0.09,0.85,0.38,0.85c4.12,0.00,7.61-2.76,7.61-5.44c0.00-1.62-1.53-2.00-2.25-2.00c-1.06,0.00-2.38,0.85-3.49,2.00c-1.28,1.32-2.25,4.04-2.25,4.59z"/>
		<path d="M923.12,285.15c0.00-2.38,1.06-4.80,2.38-6.93c1.53-2.42,3.49-4.46,5.74-5.53c1.15-0.55,2.00-0.77,3.10-0.77c1.32,0.00,2.21,0.47,3.61,0.47c0.85,0.00,1.36-2.08,2.21-2.08c0.26,0.00,0.47,0.17,0.47,0.64c0.00,0.68-0.55,1.70-0.85,2.93c-0.38,1.57-0.64,3.53-0.98,5.44c-0.34,1.87-0.77,3.83-0.77,5.44c0.00,1.11,0.64,2.51,1.45,2.51c1.40,0.00,2.30-2.76,3.10-2.76c0.34,0.00,0.38,0.30,0.38,0.47c0.00,0.43-0.21,1.06-0.77,1.83c-1.06,1.53-2.98,3.49-4.12,3.49c-2.72,0.00-2.34-4.76-2.64-4.76c-0.21,0.00-3.74,5.10-7.78,5.10s-4.55-2.72-4.55-5.48z  M926.10,284.90c0.00,2.13,1.53,3.40,3.32,3.40c3.06,0.00,5.06-3.06,5.44-3.83c1.02-2.04,2.17-9.86,2.17-9.99c0.00-1.19-1.91-1.49-2.81-1.49c-1.74,0.00-4.00,1.28-5.27,3.44c-1.23,2.04-2.25,3.95-2.64,6.16c-0.13,0.77-0.21,1.53-0.21,2.30z"/>
		<path d="M945.02,273.42c0.00-0.85,1.62-0.81,3.49-2.76c1.70-1.79,1.79-2.34,2.47-2.34c0.21,0.00,0.43,0.13,0.43,0.51c0.00,0.55-0.77,2.55-0.77,3.19c0.00,0.26,0.09,0.30,1.49,0.30c1.66,0.00,2.00-0.04,2.47-0.04c0.89,0.00,1.11,0.30,1.11,0.81c0.00,0.98-0.26,1.23-1.02,1.23c-0.68,0.00-2.51-0.21-3.44-0.21c-1.23,0.00-1.11,0.77-1.36,2.51c-0.38,2.64-1.36,8.16-1.36,8.84c0.00,2.25,1.57,2.34,1.74,2.34c2.34,0.00,3.32-1.87,4.00-1.87c0.13,0.00,0.47,0.00,0.47,0.60c0.00,1.11-3.61,4.00-6.25,4.00c-1.15,0.00-2.72-0.68-2.72-4.00c0.00-3.91,1.79-10.80,1.79-11.94c0.00-0.89-2.51,0.04-2.51-1.15z"/>
		<path d="M957.51,289.02c0.00-1.15,0.89-5.44,1.23-7.78c0.47-3.15,3.02-19.94,3.02-20.23c0.00-0.72-0.43-0.98-1.19-0.98c-0.89,0.00-1.40,0.04-1.74,0.04c-0.26,0.00-0.55-0.09-0.55-0.51c0.00-0.21,0.17-0.47,1.62-0.60c3.49-0.30,3.66-0.72,4.59-0.72c0.30,0.00,0.51,0.26,0.51,0.55c0.00,0.94-2.55,12.41-2.55,16.28c0.00,0.26,0.04,0.47,0.17,0.47c0.43,0.00,2.72-3.61,6.16-3.61c2.93,0.00,3.78,2.17,3.78,4.80c0.00,2.42-1.02,6.63-1.02,8.59c0.00,1.15,0.38,1.96,1.02,1.96c0.68,0.00,1.23-0.43,1.79-0.77c0.89-0.55,1.40-1.74,1.74-1.74c0.26,0.00,0.43,0.13,0.43,0.34c0.00,1.96-3.66,5.02-5.53,5.02c-1.74,0.00-2.08-2.13-2.08-3.95c0.00-2.64,0.77-6.12,0.77-8.67c0.00-2.68-1.15-3.32-2.42-3.32c-1.53,0.00-3.91,0.77-5.06,3.70c-0.85,2.13-1.11,6.55-1.70,10.88c-0.17,1.11-0.68,1.28-1.57,1.28c-0.47,0.00-1.40-0.17-1.40-1.02z"/>
		<path d="M977.19,271.34c0.00-0.98,1.57-0.85,2.51-3.32c0.21-0.51,0.51-1.15,0.51-1.91c0.00-2.51-2.17-2.59-2.17-3.74c0.00-0.38,1.53-2.47,2.42-2.47c0.34,0.00,2.25,0.89,2.25,4.38c0.00,4.55-4.17,7.57-5.02,7.57c-0.43,0.00-0.51-0.30-0.51-0.51z  M984.46,271.34c0.00-0.98,1.57-0.85,2.51-3.32c0.21-0.51,0.51-1.15,0.51-1.91c0.00-2.51-2.17-2.59-2.17-3.74c0.00-0.38,1.53-2.47,2.42-2.47c0.34,0.00,2.25,0.89,2.25,4.38c0.00,4.55-4.17,7.57-5.02,7.57c-0.43,0.00-0.51-0.30-0.51-0.51z"/>
		<path d="M1004.02,286.98c0.00-2.72,0.98-7.14,1.57-10.58c0.77-4.42,1.28-8.54,1.91-11.69c0.38-1.83,0.64-3.32,0.64-4.34c0.00-0.21-0.21-0.51-1.06-0.51c-0.64,0.00-1.11,0.09-1.74,0.09c-0.47,0.00-0.81,0.00-0.81-0.60c0.00-0.85,1.19-0.81,3.15-1.06c1.66-0.21,2.42-0.47,2.68-0.47c0.47,0.00,0.81,0.30,0.81,0.77c0.00,0.77-2.72,13.43-2.72,16.49c0.00,0.30,0.13,0.64,0.21,0.64c0.60,0.00,2.59-3.95,7.48-3.95c3.19,0.00,4.68,2.64,4.68,5.40c0.00,5.78-5.02,13.39-11.60,13.39c-2.51,0.00-5.19-1.11-5.19-3.57z  M1006.82,286.47c0.00,1.45,0.64,2.89,3.27,2.89c3.83,0.00,7.74-6.12,7.74-11.01c0.00-2.38-1.83-4.34-4.17-4.34c-1.02,0.00-3.78,0.43-5.14,4.12c-1.23,3.36-1.70,7.91-1.70,8.33z"/>
		<path d="M1022.47,295.31c0.00-0.72,0.64-1.40,1.36-1.40c1.70,0.00,1.74,1.40,3.70,1.40c2.47,0.00,5.27-5.44,5.27-7.06c0.00-2.38-4.68-13.35-6.93-13.35c-2.47,0.00-1.57,3.19-2.85,3.19c-0.26,0.00-0.43-0.21-0.43-0.94c0.00-1.79,0.85-5.48,3.44-5.48c4.12,0.00,8.16,12.07,8.63,12.07c0.60,0.00,1.53-4.55,1.53-7.40c0.00-1.23-1.06-2.08-1.06-3.23c0.00-0.77,0.43-1.57,1.45-1.57c0.94,0.00,1.66,0.94,1.66,2.25c0.00,1.91-1.02,7.78-3.53,14.11c-2.00,5.06-4.72,9.90-8.71,9.90c-1.83,0.00-3.53-0.55-3.53-2.51z"/>
	</g>
	<g aria-label="ALGERNON BLACKWOOD">
		<path d="M224.10,352.11l23.37,57.89l-14.18,0.00l-4.28-11.58l-22.04,0.00l-4.28,11.58l-14.18,0.00l23.37-57.89l12.21,0.00z  M224.52,386.84l-6.46-16.84l-0.14,0.00l-6.46,16.84l13.05,0.00z"/>
		<path d="M267.90,352.11l0.00,46.32l19.93,0.00l0.00,11.58l-33.12,0.00l0.00-57.89l13.19,0.00z"/>
		<path d="M351.71,377.58l0.00,12.56c-3.16,14.67-15.37,20.91-26.74,20.91c-15.58,0.00-28.21-13.40-28.21-29.96c0.00-16.63,11.93-30.04,28.21-30.04c10.18,0.00,17.26,3.79,22.32,9.89l-8.63,9.47c-3.37-5.40-7.79-7.44-12.91-7.44c-8.14,0.00-14.74,8.07-14.74,18.11c0.00,9.82,6.60,17.82,14.74,17.82c6.32,0.00,12.56-4.07,12.56-11.16l-13.33,0.00l0.00-10.18l26.74,0.00z"/>
		<path d="M395.66,352.11l0.00,11.58l-19.93,0.00l0.00,11.51l19.09,0.00l0.00,11.58l-19.09,0.00l0.00,11.65l19.93,0.00l0.00,11.58l-33.12,0.00l0.00-57.89l33.12,0.00z"/>
		<path d="M408.24,352.11l20.70,0.00c10.74,0.00,18.88,5.82,18.88,17.19c0.00,8.70-4.77,14.53-11.86,16.77l19.93,23.93l-16.77,0.00l-17.68-22.88l0.00,22.88l-13.19,0.00l0.00-57.89z  M421.43,377.79l1.54,0.00c4.98,0.00,10.95-0.35,10.95-7.58s-5.96-7.58-10.95-7.58l-1.54,0.00l0.00,15.16z"/>
		<path d="M476.68,374.07l0.00,35.93l-13.19,0.00l0.00-57.89l13.19,0.00l23.02,35.93l0.14,0.00l0.00-35.93l13.19,0.00l0.00,57.89l-13.19,0.00l-23.02-35.93l-0.14,0.00z"/>
		<path d="M523.85,381.02c0.00-16.91,13.26-29.96,29.19-29.96c16.07,0.00,29.12,13.05,29.12,29.96s-12.49,30.04-29.12,30.04c-17.12,0.00-29.19-13.12-29.19-30.04z  M538.10,381.02c0.00,8.63,4.14,17.26,14.95,17.26c10.53,0.00,14.88-8.63,14.88-17.26s-4.63-17.26-14.88-17.26c-10.18,0.00-14.95,8.63-14.95,17.26z"/>
		<path d="M606.18,374.07l0.00,35.93l-13.19,0.00l0.00-57.89l13.19,0.00l23.02,35.93l0.14,0.00l0.00-35.93l13.19,0.00l0.00,57.89l-13.19,0.00l-23.02-35.93l-0.14,0.00z"/>
		<path d="M680.11,352.11l17.96,0.00c9.96,0.00,17.82,3.72,17.82,14.74c0.00,5.33-2.32,9.89-7.23,12.42c7.23,1.26,12.35,5.26,12.35,14.60c0.00,9.54-6.95,16.14-18.95,16.14l-21.96,0.00l0.00-57.89z  M693.31,374.77l1.05,0.00c5.68,0.00,8.77-1.75,8.77-6.60c0.00-4.14-3.02-5.89-8.77-5.89l-1.05,0.00l0.00,12.49z  M693.31,399.82l4.14,0.00c6.25,0.00,9.68-1.89,9.68-6.46c0.00-5.33-3.44-7.23-9.68-7.23l-4.14,0.00l0.00,13.68z"/>
		<path d="M745.04,352.11l0.00,46.32l19.93,0.00l0.00,11.58l-33.12,0.00l0.00-57.89l13.19,0.00z"/>
		<path d="M806.96,352.11l23.37,57.89l-14.18,0.00l-4.28-11.58l-22.04,0.00l-4.28,11.58l-14.18,0.00l23.37-57.89l12.21,0.00z  M807.38,386.84l-6.46-16.84l-0.14,0.00l-6.46,16.84l13.05,0.00z"/>
		<path d="M866.13,398.07c6.74,0.00,11.37-3.58,11.37-3.58l5.61,11.23s-6.46,5.33-19.02,5.33c-16.35,0.00-31.37-13.33-31.37-29.89c0.00-16.63,14.95-30.11,31.37-30.11c12.56,0.00,19.02,5.33,19.02,5.33l-5.61,11.23s-4.63-3.58-11.37-3.58c-13.26,0.00-19.09,9.26-19.09,16.98c0.00,7.79,5.82,17.05,19.09,17.05z"/>
		<path d="M945.87,410.00l-18.18,0.00l-21.33-24.56l0.00,24.56l-13.19,0.00l0.00-57.89l13.19,0.00l0.00,23.65l19.86-23.65l16.00,0.00l-23.30,27.44z"/>
		<path d="M991.85,410.00l-9.26-32.49l-9.26,32.49l-14.67,0.00l-16.49-57.89l14.67,0.00l9.89,39.72l0.35,0.00l10.53-39.72l9.96,0.00l10.53,39.72l0.35,0.00l9.89-39.72l14.60,0.00l-16.49,57.89l-14.60,0.00z"/>
		<path d="M1026.25,381.02c0.00-16.91,13.26-29.96,29.19-29.96c16.07,0.00,29.12,13.05,29.12,29.96s-12.49,30.04-29.12,30.04c-17.12,0.00-29.19-13.12-29.19-30.04z  M1040.50,381.02c0.00,8.63,4.14,17.26,14.95,17.26c10.53,0.00,14.88-8.63,14.88-17.26s-4.63-17.26-14.88-17.26c-10.18,0.00-14.95,8.63-14.95,17.26z"/>
		<path d="M1092.80,381.02c0.00-16.91,13.26-29.96,29.19-29.96c16.07,0.00,29.12,13.05,29.12,29.96s-12.49,30.04-29.12,30.04c-17.12,0.00-29.19-13.12-29.19-30.04z  M1107.04,381.02c0.00,8.63,4.14,17.26,14.95,17.26c10.53,0.00,14.88-8.63,14.88-17.26s-4.63-17.26-14.88-17.26c-10.18,0.00-14.95,8.63-14.95,17.26z"/>
		<path d="M1161.94,352.11l16.77,0.00c15.86,0.00,29.19,12.07,29.19,28.91c0.00,16.91-13.26,28.98-29.19,28.98l-16.77,0.00l0.00-57.89z  M1175.13,398.21l2.04,0.00c9.75,0.00,16.42-7.44,16.49-17.12c0.00-9.68-6.67-17.19-16.49-17.19l-2.04,0.00l0.00,34.32z"/>
	</g>
</svg>
